<svg xmlns="http://www.w3.org/2000/svg" width="168.724" height="33.389" viewBox="0 0 168.724 33.389">
  <g id="Layer_x0020_1" transform="translate(0 0)">
    <g id="_2340996906784" transform="translate(0 0)">
      <g id="Group_7646" data-name="Group 7646" transform="translate(0 0.121)">
        <path id="Path_26558" data-name="Path 26558" d="M16.573,9.15A16.573,16.573,0,1,1,0,25.723,16.573,16.573,0,0,1,16.573,9.15Z" transform="translate(0 -9.15)" fill="#264796" fill-rule="evenodd"/>
        <g id="Group_7645" data-name="Group 7645" transform="translate(3.329 3.315)">
          <path id="Path_26559" data-name="Path 26559" d="M270.295,290.712h8.252a3.83,3.83,0,0,0-1.326.5,1.385,1.385,0,1,0,1.372,2.374c1.031-.5,1.753-1.935,2.929-2.732-.1,1.415-.988,2.759-.9,3.9a1.386,1.386,0,1,0,2.745,0c.084-1.14-.8-2.483-.9-3.9,1.176.8,1.9,2.235,2.929,2.732a1.384,1.384,0,1,0,1.372-2.374c-.947-.643-2.555-.549-3.833-1.167,1.278-.62,2.886-.525,3.833-1.168a1.384,1.384,0,1,0-1.372-2.373c-1.031.5-1.753,1.935-2.929,2.731.1-1.415.988-2.759.9-3.9a1.386,1.386,0,1,0-2.745,0c-.084,1.14.8,2.483.9,3.9-1.176-.8-1.9-2.234-2.929-2.731a1.384,1.384,0,1,0-1.372,2.373,3.84,3.84,0,0,0,1.327.5h-8.254a11.7,11.7,0,0,1,11.686-11.018,11.457,11.457,0,0,1,9.87,5.416h1.542a12.806,12.806,0,0,0-11.412-6.75,13.022,13.022,0,1,0,0,26.043,12.423,12.423,0,0,0,11.271-6.555H291.71a11.055,11.055,0,0,1-9.729,5.222,11.7,11.7,0,0,1-11.686-11.018Z" transform="translate(-268.703 -276.783)" fill="#fefefe" fill-rule="evenodd"/>
          <path id="Path_26560" data-name="Path 26560" d="M252.691,272.842H263.1l-2.109.467a5.772,5.772,0,0,0-.687.19,2.439,2.439,0,0,0-.557.271l-.015.01a1.461,1.461,0,0,0-.659.777,1.054,1.054,0,0,0,.057.861l.008.014a1.053,1.053,0,0,0,.726.495,1.468,1.468,0,0,0,1.005-.182l.015-.008a5.088,5.088,0,0,0,1.409-1.281,8.055,8.055,0,0,1,1.49-1.433l.4-.273-.035.485a8.044,8.044,0,0,1-.5,2.006,5.075,5.075,0,0,0-.406,1.859v.017a1.46,1.46,0,0,0,.344.959,1.014,1.014,0,0,0,1.584,0,1.459,1.459,0,0,0,.344-.959V277.1a5.074,5.074,0,0,0-.406-1.86,8.035,8.035,0,0,1-.5-2.005l-.035-.485.4.273a8.069,8.069,0,0,1,1.489,1.432,5.072,5.072,0,0,0,1.411,1.282l.015.008a1.468,1.468,0,0,0,1.006.182,1.051,1.051,0,0,0,.725-.494l.007-.014a1.051,1.051,0,0,0,.058-.861,1.461,1.461,0,0,0-.658-.776l-.016-.011a5.1,5.1,0,0,0-1.816-.578,8.069,8.069,0,0,1-1.987-.572l-.439-.212.439-.213a8.048,8.048,0,0,1,1.989-.573,5.1,5.1,0,0,0,1.815-.577l.017-.01a1.461,1.461,0,0,0,.657-.776,1.051,1.051,0,0,0-.065-.873l0,0a1.048,1.048,0,0,0-.725-.494,1.467,1.467,0,0,0-1.005.182l-.015.008a5.082,5.082,0,0,0-1.411,1.282,8.053,8.053,0,0,1-1.489,1.432l-.4.273.035-.485a8.03,8.03,0,0,1,.5-2.005,5.065,5.065,0,0,0,.406-1.86V267.7a1.46,1.46,0,0,0-.344-.959,1.015,1.015,0,0,0-1.584,0,1.461,1.461,0,0,0-.344.959v.017a5.075,5.075,0,0,0,.406,1.858,8.043,8.043,0,0,1,.5,2.007l.035.485-.4-.273a8.053,8.053,0,0,1-1.489-1.432,5.073,5.073,0,0,0-1.41-1.281l-.015-.008a1.469,1.469,0,0,0-1.006-.182,1.052,1.052,0,0,0-.726.494l0,.007a1.05,1.05,0,0,0-.062.867,1.458,1.458,0,0,0,.651.772l.023.015a2.457,2.457,0,0,0,.557.272,5.866,5.866,0,0,0,.688.191l2.1.467h-10.65l.014-.25a12,12,0,0,1,17.706-9.786,11.626,11.626,0,0,1,4.216,3.961h1.008a12.521,12.521,0,0,0-4.462-4.515,12.758,12.758,0,1,0-.032,22.12,11.983,11.983,0,0,0,4.354-4.394h-1.009a11.034,11.034,0,0,1-4.1,3.84,12.077,12.077,0,0,1-5.756,1.382,11.936,11.936,0,0,1-11.922-11.242l-.014-.25h.25Zm6.9.474h-6.643a11.464,11.464,0,0,0,11.433,10.544,11.609,11.609,0,0,0,5.532-1.324,10.582,10.582,0,0,0,4-3.785l.07-.112h2.069l-.188.349a12.5,12.5,0,0,1-4.729,4.928,13.286,13.286,0,1,1,.036-22.936A13.009,13.009,0,0,1,276,266.025l.188.349h-2.068l-.07-.112a11.159,11.159,0,0,0-4.112-3.908,11.5,11.5,0,0,0-16.99,9.148h6.644l-.092-.058a1.935,1.935,0,0,1-.868-1.031,1.515,1.515,0,0,1,.1-1.261l0-.007a1.525,1.525,0,0,1,1.043-.718,1.937,1.937,0,0,1,1.316.229,5.386,5.386,0,0,1,1.558,1.4,11.1,11.1,0,0,0,.95,1,11.154,11.154,0,0,0-.393-1.323,5.425,5.425,0,0,1-.431-2.029,1.935,1.935,0,0,1,.461-1.267,1.486,1.486,0,0,1,2.3,0A1.935,1.935,0,0,1,266,267.7a5.417,5.417,0,0,1-.431,2.03,11.117,11.117,0,0,0-.392,1.323,11.117,11.117,0,0,0,.949-1,5.39,5.39,0,0,1,1.559-1.4,1.936,1.936,0,0,1,1.316-.229,1.519,1.519,0,0,1,1.045.723l0,0a1.52,1.52,0,0,1,.1,1.262,1.934,1.934,0,0,1-.868,1.031,5.442,5.442,0,0,1-1.977.643,11.191,11.191,0,0,0-1.342.322,11.2,11.2,0,0,0,1.34.321,5.447,5.447,0,0,1,1.979.644,1.934,1.934,0,0,1,.869,1.031,1.516,1.516,0,0,1-.1,1.262l-.007.014a1.525,1.525,0,0,1-1.039.711,1.937,1.937,0,0,1-1.316-.229,5.381,5.381,0,0,1-1.559-1.4,11.185,11.185,0,0,0-.949-1,11.114,11.114,0,0,0,.392,1.322,5.424,5.424,0,0,1,.431,2.031,1.934,1.934,0,0,1-.46,1.267,1.486,1.486,0,0,1-2.3,0,1.935,1.935,0,0,1-.461-1.267,5.43,5.43,0,0,1,.431-2.03,11.165,11.165,0,0,0,.393-1.323,11.127,11.127,0,0,0-.95,1,5.4,5.4,0,0,1-1.558,1.4,1.939,1.939,0,0,1-1.316.229,1.521,1.521,0,0,1-1.038-.709l-.008-.013a1.519,1.519,0,0,1-.1-1.265,1.935,1.935,0,0,1,.868-1.031Z" transform="translate(-251.1 -259.15)" fill="#fefefe"/>
        </g>
      </g>
      <path id="Path_26561" data-name="Path 26561" d="M2866.137.187V3.224h-6.986V7.2h5.35v2.92h-5.35v4.065h6.986v3.037H2855.18V.187h10.958Zm18.692,8.508a8.948,8.948,0,0,1-.635,3.411,7.966,7.966,0,0,1-1.795,2.7,8.124,8.124,0,0,1-2.784,1.776,9.867,9.867,0,0,1-3.617.639h-6.612V.187H2876a9.788,9.788,0,0,1,3.617.643A8.241,8.241,0,0,1,2882.4,2.6a7.95,7.95,0,0,1,1.795,2.695,8.91,8.91,0,0,1,.635,3.4Zm-4.042,0a7.417,7.417,0,0,0-.327-2.278,4.875,4.875,0,0,0-.939-1.725,4.088,4.088,0,0,0-1.5-1.086A5.1,5.1,0,0,0,2876,3.224h-2.64V14.181H2876a5.1,5.1,0,0,0,2.021-.382,4.088,4.088,0,0,0,1.5-1.086,4.875,4.875,0,0,0,.939-1.725,7.467,7.467,0,0,0,.327-2.294Zm17.9-8.508V3.224H2891.7V7.2h5.35v2.92h-5.35v4.065h6.985v3.037h-10.957V.187h10.957Zm7.2,13.878h6.308v3.154h-10.256V.187h3.948Zm5.8-13.878H2915a1.5,1.5,0,0,1,.861.234,1.083,1.083,0,0,1,.447.627l2.337,8.944c.078.292.156.6.234.931a8.6,8.6,0,0,1,.175,1.036q.117-.555.257-1.04c.094-.327.183-.635.269-.927l2.757-8.944a1.223,1.223,0,0,1,.451-.6,1.332,1.332,0,0,1,.833-.265h1.168a1.474,1.474,0,0,1,.849.23,1.168,1.168,0,0,1,.459.631L2928.827,10q.129.409.269.876c.093.311.175.642.245,1,.062-.347.128-.678.195-.989s.133-.611.2-.884l2.336-8.948a1.106,1.106,0,0,1,.444-.6,1.36,1.36,0,0,1,.841-.261h3.107l-5.257,17.032h-3.575l-3.2-10.393c-.054-.163-.109-.339-.167-.53s-.117-.4-.171-.611c-.055.214-.109.421-.167.611s-.117.366-.172.53l-3.247,10.393h-3.575Zm38.27,0V3.224h-6.986V7.2h5.35v2.92h-5.35v4.065h6.986v3.037h-10.957V.187h10.957Zm7.571,17.032h-3.972V.187h3.972Zm13.646-13.57a1.479,1.479,0,0,1-.366.421.856.856,0,0,1-.5.136,1.2,1.2,0,0,1-.576-.167c-.206-.113-.44-.241-.7-.382a5.842,5.842,0,0,0-.9-.378,3.573,3.573,0,0,0-1.145-.171,2.456,2.456,0,0,0-1.651.475,1.607,1.607,0,0,0-.545,1.277,1.194,1.194,0,0,0,.327.857,2.832,2.832,0,0,0,.861.584,9.186,9.186,0,0,0,1.215.448c.455.136.919.288,1.394.456a12.594,12.594,0,0,1,1.4.592,4.665,4.665,0,0,1,1.215.864,4.044,4.044,0,0,1,.856,1.281,4.56,4.56,0,0,1,.327,1.819,5.921,5.921,0,0,1-.409,2.208,5.171,5.171,0,0,1-1.184,1.8,5.507,5.507,0,0,1-1.916,1.2,7.178,7.178,0,0,1-2.59.44,8.571,8.571,0,0,1-1.616-.16,10.005,10.005,0,0,1-1.6-.456,9.2,9.2,0,0,1-1.448-.7,6.271,6.271,0,0,1-1.18-.9l1.168-1.877a.96.96,0,0,1,.362-.343,1.025,1.025,0,0,1,.5-.128,1.337,1.337,0,0,1,.709.222q.356.222.806.491a6.553,6.553,0,0,0,1.032.491,3.877,3.877,0,0,0,1.379.222,2.625,2.625,0,0,0,1.671-.475,1.8,1.8,0,0,0,.6-1.5,1.421,1.421,0,0,0-.327-.973,2.518,2.518,0,0,0-.856-.619,7.948,7.948,0,0,0-1.211-.432c-.452-.125-.915-.261-1.39-.413a9.714,9.714,0,0,1-1.39-.565,4.382,4.382,0,0,1-1.207-.876,4.108,4.108,0,0,1-.861-1.355,5.392,5.392,0,0,1-.327-2.005,4.752,4.752,0,0,1,.385-1.869,4.835,4.835,0,0,1,1.133-1.628,5.568,5.568,0,0,1,1.834-1.137A6.774,6.774,0,0,1,2966.936,0a9.35,9.35,0,0,1,1.526.125,7.657,7.657,0,0,1,1.406.366,7.768,7.768,0,0,1,1.246.576,5.771,5.771,0,0,1,1.032.763l-.981,1.818Zm13.669,0a1.479,1.479,0,0,1-.366.421.856.856,0,0,1-.5.136,1.205,1.205,0,0,1-.577-.167c-.206-.113-.44-.241-.7-.382a5.828,5.828,0,0,0-.9-.378,3.572,3.572,0,0,0-1.145-.171,2.458,2.458,0,0,0-1.651.475,1.608,1.608,0,0,0-.545,1.277,1.194,1.194,0,0,0,.327.857,2.828,2.828,0,0,0,.861.584,9.2,9.2,0,0,0,1.215.448c.456.136.919.288,1.394.456a12.52,12.52,0,0,1,1.4.592,4.649,4.649,0,0,1,1.215.864,4.04,4.04,0,0,1,.857,1.281,4.56,4.56,0,0,1,.327,1.819,5.921,5.921,0,0,1-.409,2.208,5.175,5.175,0,0,1-1.184,1.8,5.5,5.5,0,0,1-1.916,1.2,7.176,7.176,0,0,1-2.589.44,8.573,8.573,0,0,1-1.616-.16,10,10,0,0,1-1.6-.456,9.2,9.2,0,0,1-1.448-.7,6.254,6.254,0,0,1-1.18-.9l1.168-1.877a.959.959,0,0,1,.362-.343,1.026,1.026,0,0,1,.5-.128,1.336,1.336,0,0,1,.709.222q.356.222.806.491a6.553,6.553,0,0,0,1.032.491,3.876,3.876,0,0,0,1.378.222,2.624,2.624,0,0,0,1.67-.475,1.8,1.8,0,0,0,.6-1.5,1.421,1.421,0,0,0-.327-.973,2.519,2.519,0,0,0-.857-.619,7.954,7.954,0,0,0-1.211-.432c-.451-.125-.915-.261-1.39-.413a9.722,9.722,0,0,1-1.39-.565,4.375,4.375,0,0,1-1.207-.876,4.1,4.1,0,0,1-.861-1.355,5.392,5.392,0,0,1-.327-2.005,4.752,4.752,0,0,1,.386-1.869,4.837,4.837,0,0,1,1.133-1.628,5.569,5.569,0,0,1,1.834-1.137A6.772,6.772,0,0,1,2980.6,0a9.357,9.357,0,0,1,1.527.125,7.677,7.677,0,0,1,1.406.366,7.762,7.762,0,0,1,1.246.576,5.765,5.765,0,0,1,1.032.763l-.981,1.818Z" transform="translate(-2817.324 0)" fill="#264796"/>
      <path id="Path_26562" data-name="Path 26562" d="M2860.961,1658.088c.1.2.205.405.3.618s.187.431.275.654c.089-.229.182-.452.281-.667s.2-.426.3-.628l2.913-5.747a.939.939,0,0,1,.161-.229.521.521,0,0,1,.182-.122.639.639,0,0,1,.231-.039h2.308v11.354h-2.321v-6.534q0-.475.047-1.028l-3.006,5.838a.989.989,0,0,1-.377.413,1.049,1.049,0,0,1-.542.14h-.358a1.04,1.04,0,0,1-.54-.14.992.992,0,0,1-.379-.413l-3.022-5.846c.021.182.036.363.047.543s.015.343.015.493v6.534h-2.321v-11.354h2.311a.626.626,0,0,1,.229.039.529.529,0,0,1,.184.122.945.945,0,0,1,.158.229Zm14.248,3.107a2.426,2.426,0,0,0,.948-.176,1.9,1.9,0,0,0,.7-.5,2.229,2.229,0,0,0,.441-.8,3.484,3.484,0,0,0,.15-1.07v-6.721h2.632v6.726a5.243,5.243,0,0,1-.338,1.916,4.311,4.311,0,0,1-.971,1.506,4.374,4.374,0,0,1-1.534.981,6.091,6.091,0,0,1-4.073,0,4.375,4.375,0,0,1-1.534-.981,4.262,4.262,0,0,1-.966-1.506,5.3,5.3,0,0,1-.335-1.916v-6.726h2.632v6.713a3.482,3.482,0,0,0,.153,1.07,2.26,2.26,0,0,0,.439.8,1.9,1.9,0,0,0,.706.506A2.414,2.414,0,0,0,2875.209,1661.2Zm15.533-9.267v2.087h-3.193v9.267h-2.632v-9.267h-3.193v-2.087h9.018Zm6.514,9.267a2.428,2.428,0,0,0,.948-.176,1.905,1.905,0,0,0,.7-.5,2.225,2.225,0,0,0,.441-.8,3.484,3.484,0,0,0,.15-1.07v-6.721h2.632v6.726a5.243,5.243,0,0,1-.338,1.916,4.308,4.308,0,0,1-.971,1.506,4.374,4.374,0,0,1-1.534.981,6.091,6.091,0,0,1-4.073,0,4.376,4.376,0,0,1-1.534-.981,4.259,4.259,0,0,1-.966-1.506,5.3,5.3,0,0,1-.335-1.916v-6.726h2.632v6.713a3.474,3.474,0,0,0,.153,1.07,2.257,2.257,0,0,0,.439.8,1.9,1.9,0,0,0,.706.506A2.414,2.414,0,0,0,2897.257,1661.2Zm17.464,2.079h-2.04a.938.938,0,0,1-.563-.161.821.821,0,0,1-.309-.408l-.67-1.978h-4.315l-.669,1.978a.906.906,0,0,1-.857.568h-2.056l4.392-11.354h2.695Zm-7.289-4.34h3.1l-1.044-3.06c-.068-.195-.145-.423-.236-.688s-.181-.548-.27-.854c-.083.312-.169.6-.257.867s-.171.5-.249.691Zm11.545,2.245h4.205v2.1h-6.837v-11.354h2.632v9.252Zm16.467-9.252v2.025h-4.657v2.866h3.878v2.04h-3.878v4.423h-2.648v-11.354h7.3Zm6.795,9.267a2.428,2.428,0,0,0,.948-.176,1.9,1.9,0,0,0,.7-.5,2.229,2.229,0,0,0,.441-.8,3.484,3.484,0,0,0,.15-1.07v-6.721h2.632v6.726a5.248,5.248,0,0,1-.337,1.916,4.315,4.315,0,0,1-.971,1.506,4.377,4.377,0,0,1-1.534.981,6.091,6.091,0,0,1-4.073,0,4.376,4.376,0,0,1-1.534-.981,4.259,4.259,0,0,1-.966-1.506,5.3,5.3,0,0,1-.335-1.916v-6.726H2940v6.713a3.474,3.474,0,0,0,.153,1.07,2.256,2.256,0,0,0,.438.8,1.9,1.9,0,0,0,.706.506A2.414,2.414,0,0,0,2942.239,1661.2Zm8.68-9.267a2.258,2.258,0,0,1,.288.016.73.73,0,0,1,.21.057.7.7,0,0,1,.179.122,2.008,2.008,0,0,1,.195.21l5.389,6.814c-.021-.218-.036-.431-.047-.636s-.016-.4-.016-.579v-6h2.321v11.354h-1.371a1.261,1.261,0,0,1-.514-.094,1.1,1.1,0,0,1-.405-.343l-5.35-6.76c.016.2.029.389.039.579s.016.369.016.535v6.082h-2.321v-11.354Zm21.389,5.672a5.968,5.968,0,0,1-.423,2.274,5.313,5.313,0,0,1-1.2,1.8,5.415,5.415,0,0,1-1.856,1.184,6.576,6.576,0,0,1-2.411.426h-4.408v-11.354h4.408a6.521,6.521,0,0,1,2.411.428,5.494,5.494,0,0,1,1.856,1.184,5.3,5.3,0,0,1,1.2,1.8,5.945,5.945,0,0,1,.423,2.264Zm-2.695,0a4.948,4.948,0,0,0-.218-1.519,3.247,3.247,0,0,0-.626-1.15,2.724,2.724,0,0,0-1-.724,3.394,3.394,0,0,0-1.347-.254h-1.76v7.3h1.76a3.4,3.4,0,0,0,1.347-.254,2.726,2.726,0,0,0,1-.724,3.249,3.249,0,0,0,.626-1.15,4.98,4.98,0,0,0,.218-1.529Z" transform="translate(-2817.305 -1630.018)" fill="#95c12b"/>
    </g>
  </g>
</svg>
