<svg xmlns="http://www.w3.org/2000/svg" xmlns:xlink="http://www.w3.org/1999/xlink" width="21.235" height="22.199" viewBox="0 0 21.235 22.199">
  <defs>
    <clipPath id="clip-path">
      <rect id="Rectangle_1548" data-name="Rectangle 1548" width="21.235" height="22.199" transform="translate(0 0)" fill="#fff"/>
    </clipPath>
  </defs>
  <g id="Group_7629" data-name="Group 7629" transform="translate(0 0)">
    <g id="Group_7538" data-name="Group 7538" clip-path="url(#clip-path)">
      <path id="Path_26313" data-name="Path 26313" d="M3.779,14.193c-.176.1-.417.209-.6.3a4.922,4.922,0,0,0-1.748,1.42c-.069.091-.122.175-.181.258a6.013,6.013,0,0,0-.358.544c-.11.192-.211.376-.311.591-.053.115-.206.539-.248.6-.056.273-.165.546-.221.845a6.788,6.788,0,0,0-.1.9,2.246,2.246,0,0,0,.066.89,1.056,1.056,0,0,0,.477.453,4.879,4.879,0,0,0,1.507.37l1.708.276,1.7.226,1.715.181,1.719.112c.762.081,1.594.018,2.359.035l1.062-.034,1.7-.113L15.6,21.9c.09-.066,1.6-.23,1.855-.264l1.7-.272a5.255,5.255,0,0,0,1.508-.388c.558-.305.615-.554.555-1.357a5.727,5.727,0,0,0-.1-.877c-.037-.182-.19-.672-.188-.783l-.3-.65A5.485,5.485,0,0,0,18.6,14.832c-.495-.32-.931-.5-1.156-.642l-1.7-.707a7.664,7.664,0,0,1-1.466-.677l-.009.008c-.1.039-.079.071-.1.2l-.082.409c-.007.034-.016.082-.026.112-.04.129.05-.124-.017.044l-.021.042a4.511,4.511,0,0,1-.182.888,12.5,12.5,0,0,1-.488,1.719,10.816,10.816,0,0,1-.672,1.674,2.745,2.745,0,0,1-.17.368.856.856,0,0,1-.19.313,2.545,2.545,0,0,1-.3.566l-.343.5a9.359,9.359,0,0,1-.77,1.091.442.442,0,0,1-.147.154c-.191.123-.2.029-.2.027-.184-.025-.443-.433-.557-.586l-.473-.685-.012-.013-.331-.51c-.108-.177-.21-.358-.308-.545l-.329-.658a10.722,10.722,0,0,1-.683-1.7,10.3,10.3,0,0,1-.449-1.65l-.056-.128c-.009-.037-.02-.093-.029-.133l-.169-.776a2.891,2.891,0,0,1-.128-.713,6.059,6.059,0,0,0-.822.359l-1.631.663c-.262.1-.553.261-.81.345" fill="#fff" fill-rule="evenodd"/>
      <path id="Path_26314" data-name="Path 26314" d="M8.981.186a.984.984,0,0,1-.246.1,3.883,3.883,0,0,0-1.028.53,1.921,1.921,0,0,0-.16.141c-.058.054-.1.078-.168.132A3.636,3.636,0,0,0,6.5,2.363a.521.521,0,0,1-.105.205,4.989,4.989,0,0,1-.155.629,4.415,4.415,0,0,0-.083.658c.007.637-.033,1.313-.029,1.941,0,.286.012.216-.05.243-.294.062-.356.28-.391.6s.029.73,0,.959a2.219,2.219,0,0,1,.148.517A4.656,4.656,0,0,0,6.469,9.4a5.938,5.938,0,0,0,.43.524,5.372,5.372,0,0,1,.271.713,4.009,4.009,0,0,0,3.255,2.6,3.554,3.554,0,0,0,2.828-1.3c.079-.1.143-.163.222-.269a3.618,3.618,0,0,0,.212-.307,7.566,7.566,0,0,0,.356-.683c.3-.63,0-.428.517-1.013l.225-.282c.063-.13.155-.25.231-.383s.138-.258.2-.4a7.282,7.282,0,0,0,.293-.889,4.673,4.673,0,0,0,.036-1.028,1.247,1.247,0,0,0-.105-.44c-.081-.154-.145-.165-.335-.211l0-.1a8.825,8.825,0,0,1,0-1.08c-.056-.1-.028-1.019-.051-1.238a4.546,4.546,0,0,0-.241-1.046,4.184,4.184,0,0,0-.942-1.481,3.741,3.741,0,0,0-.7-.5A3.5,3.5,0,0,0,12.324.23,5.991,5.991,0,0,0,10.379,0a5.126,5.126,0,0,0-.743.064c-.17.025-.533.125-.655.122" fill="#fff" fill-rule="evenodd"/>
      <path id="Path_26315" data-name="Path 26315" d="M9.552,17.929c-.059.267.005.272.109.489l.427.83a3.869,3.869,0,0,1,.224.432l.275.458c.1-.03.133-.151.186-.243.026-.044.05-.086.08-.139.043-.077.032-.077.1-.13.009-.093.538-1.039.609-1.184A.8.8,0,0,0,11.707,18l-.027-.065a.634.634,0,0,1-.019-.068c-.011-.043-.022-.091-.032-.135-.02-.087-.037-.173-.059-.265-.271-1.121-.051-.956-.973-.956a5.855,5.855,0,0,0-.61,0c-.161.032-.168.251-.208.422-.076.323-.147.671-.227.994" fill="#fff" fill-rule="evenodd"/>
      <path id="Path_26316" data-name="Path 26316" d="M9.553,14.512a6.286,6.286,0,0,0,.19,1.147c.033.169.034.441.195.486a5.946,5.946,0,0,0,.687.008,6.151,6.151,0,0,0,.64,0c.18-.033.177-.273.215-.466a6.712,6.712,0,0,0,.2-1.171c-.082-.077-.038-.08-.164-.094-.078-.009-.212,0-.3,0-.2,0-.4,0-.594,0s-.387,0-.581,0c-.091,0-.212-.007-.3,0-.127.01-.106.016-.186.1" fill="#fff" fill-rule="evenodd"/>
    </g>
  </g>
</svg>
